<svg width="827" height="875" viewBox="0 0 827 875" fill="none" xmlns="http://www.w3.org/2000/svg">
<path d="M769.5 24.7508C853.969 57.634 931.643 124.535 946.2 207.616C959.417 289.332 909.52 385.866 883.791 478.377C859.404 570.891 859.184 659.38 824.097 736.892C787.672 813.039 716.38 878.209 642.576 873.941C567.434 868.309 491.126 791.882 409.351 754.921C328.918 717.964 244.361 720.476 165.263 686.245C86.1694 650.652 12.5316 579.677 1.99125 500.691C-7.20362 420.346 46.6991 331.99 108.59 269.519C171.823 207.053 241.702 170.469 307.564 129.791C374.769 89.1164 436.62 42.9829 514.52 18.6716C591.079 -5.64315 683.689 -8.13579 769.5 24.7508Z" fill="url(#paint0_linear_53_67)"/>
<defs>
<linearGradient id="paint0_linear_53_67" x1="-0.00611277" y1="872.526" x2="873.397" y2="-69.0819" gradientUnits="userSpaceOnUse">
<stop stop-color="#FF4500"/>
<stop offset="1" stop-color="#FBA81F"/>
</linearGradient>
</defs>
</svg>
